<svg xmlns="http://www.w3.org/2000/svg" version="1.1" xmlns:xlink="http://www.w3.org/1999/xlink" xmlns:svgjs="http://svgjs.com/svgjs" width="1440" height="770" preserveAspectRatio="none" viewBox="0 0 1440 770"><g mask="url(&quot;#SvgjsMask1006&quot;)" fill="none"><rect width="1440" height="770" x="0" y="0" fill="rgba(31, 54, 77, 1)"></rect><path d="M836.93 661.07L886.97 661.07L886.97 697.17L836.93 697.17z" stroke="#d3b714"></path><path d="M28.42 584.94L90.92 584.94L90.92 647.44L28.42 647.44z" fill="#d3b714"></path><path d="M308.13 617.11L338.35 617.11L338.35 647.33L308.13 647.33z" stroke="#e73635"></path><path d="M618.25 289.82a7.36 7.36 0 1 0 4.64 13.97z" fill="#d3b714"></path><path d="M647.56 647.88L704.61 647.88L704.61 704.93L647.56 704.93z" fill="#e73635"></path><path d="M555.2 504.31a67.25 67.25 0 1 0 134.5 0.66z" stroke="#e73635"></path><path d="M294.28 542.52a32.65 32.65 0 1 0 30.33-57.84z" fill="#e73635"></path><path d="M521.48 636.24L593.19 636.24L593.19 674.91L521.48 674.91z" stroke="#d3b714"></path><path d="M674.69 611.82a73.2 73.2 0 1 0 112-94.28z" fill="#037b0b"></path><path d="M488.46 176.32 a30.93 30.93 0 1 0 61.86 0 a30.93 30.93 0 1 0 -61.86 0z" stroke="#e73635"></path><path d="M1365.08 684.1 a63.01 63.01 0 1 0 126.02 0 a63.01 63.01 0 1 0 -126.02 0z" fill="#037b0b"></path><path d="M115.25 761.6 a40.48 40.48 0 1 0 80.96 0 a40.48 40.48 0 1 0 -80.96 0z" fill="#d3b714"></path><path d="M1167.38 415.56L1183.94 415.56L1183.94 432.12L1167.38 432.12z" fill="#d3b714"></path><path d="M1228.72 117.28L1274.56 117.28L1274.56 118.71L1228.72 118.71z" fill="#e73635"></path><path d="M1015.21 422.49L1019.14 422.49L1019.14 428.17L1015.21 428.17z" fill="#e73635"></path><path d="M-53.32 69.82 a75.43 75.43 0 1 0 150.86 0 a75.43 75.43 0 1 0 -150.86 0z" stroke="#037b0b"></path><path d="M1043.74 449.75 a36.4 36.4 0 1 0 72.8 0 a36.4 36.4 0 1 0 -72.8 0z" stroke="#d3b714"></path><path d="M91.08 138.04 a64.2 64.2 0 1 0 128.4 0 a64.2 64.2 0 1 0 -128.4 0z" fill="#d3b714"></path><path d="M478.04 265.61L533.77 265.61L533.77 321.34L478.04 321.34z" fill="#d3b714"></path><path d="M139.22 537.11a7.11 7.11 0 1 0-9.86-10.24z" fill="#037b0b"></path><path d="M984.19 63.14a2.75 2.75 0 1 0-4.71 2.84z" stroke="#037b0b"></path><path d="M750.66 591.77L808.19 591.77L808.19 649.3L750.66 649.3z" stroke="#037b0b"></path><path d="M1238.02 486.5L1265.06 486.5L1265.06 513.54L1238.02 513.54z" fill="#e73635"></path><path d="M1172.83 172.71L1192.55 172.71L1192.55 192.43L1172.83 192.43z" fill="#d3b714"></path></g><defs><mask id="SvgjsMask1006"><rect width="1440" height="770" fill="#ffffff"></rect></mask></defs></svg>